<svg width="30" height="30" viewBox="0 0 30 30" fill="none" xmlns="http://www.w3.org/2000/svg">
<path d="M21.249 28.4397H8.74902C4.44902 28.4397 1.56152 25.5522 1.56152 21.2522V15.0022C1.56152 11.1522 3.93652 8.36474 7.62402 7.90224C7.97402 7.85224 8.36152 7.81473 8.74902 7.81473H21.249C21.549 7.81473 21.9365 7.82722 22.3365 7.88972C26.024 8.31472 28.4365 11.1147 28.4365 15.0022V21.2522C28.4365 25.5522 25.549 28.4397 21.249 28.4397ZM8.74902 9.68973C8.44902 9.68973 8.16152 9.71471 7.87402 9.75221C5.12402 10.1022 3.43652 12.1022 3.43652 15.0022V21.2522C3.43652 24.4772 5.52402 26.5647 8.74902 26.5647H21.249C24.474 26.5647 26.5615 24.4772 26.5615 21.2522V15.0022C26.5615 12.0772 24.849 10.0647 22.074 9.73974C21.774 9.68974 21.5115 9.68973 21.249 9.68973H8.74902Z" fill="white"/>
<path d="M7.73805 9.75716C7.43805 9.75716 7.16305 9.61966 6.97555 9.36966C6.76305 9.08216 6.73805 8.70716 6.90055 8.39466C7.11305 7.96966 7.41305 7.55716 7.80055 7.18216L11.863 3.10715C13.938 1.04465 17.313 1.04465 19.388 3.10715L21.5755 5.31967C22.5005 6.23217 23.063 7.45717 23.1255 8.75717C23.138 9.04467 23.0255 9.31964 22.813 9.50714C22.6005 9.69464 22.313 9.78217 22.038 9.73217C21.788 9.69467 21.5255 9.68216 21.2505 9.68216H8.75055C8.45055 9.68216 8.16305 9.70714 7.87555 9.74464C7.83805 9.75714 7.78805 9.75716 7.73805 9.75716ZM9.82555 7.80716H21.0255C20.863 7.38216 20.6005 6.99467 20.2505 6.64467L18.0505 4.41967C16.713 3.09467 14.5255 3.09467 13.1755 4.41967L9.82555 7.80716Z" fill="white"/>
<path d="M27.499 21.5603H23.749C21.849 21.5603 20.3115 20.0228 20.3115 18.1228C20.3115 16.2228 21.849 14.6853 23.749 14.6853H27.499C28.0115 14.6853 28.4365 15.1103 28.4365 15.6228C28.4365 16.1353 28.0115 16.5603 27.499 16.5603H23.749C22.8865 16.5603 22.1865 17.2603 22.1865 18.1228C22.1865 18.9853 22.8865 19.6853 23.749 19.6853H27.499C28.0115 19.6853 28.4365 20.1103 28.4365 20.6228C28.4365 21.1353 28.0115 21.5603 27.499 21.5603Z" fill="white"/>
</svg>
