<svg width="30" height="30" viewBox="0 0 30 30" fill="none" xmlns="http://www.w3.org/2000/svg">
<path d="M15.1516 16.9082C15.1266 16.9082 15.0891 16.9082 15.0641 16.9082C15.0266 16.9082 14.9766 16.9082 14.9391 16.9082C12.1016 16.8207 9.97656 14.6082 9.97656 11.8832C9.97656 9.1082 12.2391 6.8457 15.0141 6.8457C17.7891 6.8457 20.0516 9.1082 20.0516 11.8832C20.0391 14.6207 17.9016 16.8207 15.1891 16.9082C15.1641 16.9082 15.1641 16.9082 15.1516 16.9082ZM15.0016 8.7082C13.2516 8.7082 11.8391 10.1332 11.8391 11.8707C11.8391 13.5832 13.1766 14.9707 14.8766 15.0332C14.9141 15.0207 15.0391 15.0207 15.1641 15.0332C16.8391 14.9457 18.1516 13.5707 18.1641 11.8707C18.1641 10.1332 16.7516 8.7082 15.0016 8.7082Z" fill="white"/>
<path d="M15.001 28.4379C11.6385 28.4379 8.42602 27.1879 5.93852 24.9129C5.71352 24.7129 5.61352 24.4129 5.63852 24.1254C5.80102 22.6379 6.72602 21.2504 8.26352 20.2254C11.9885 17.7504 18.026 17.7504 21.7385 20.2254C23.276 21.2629 24.201 22.6379 24.3635 24.1254C24.401 24.4254 24.2885 24.7129 24.0635 24.9129C21.576 27.1879 18.3635 28.4379 15.001 28.4379ZM7.60102 23.8754C9.67602 25.6129 12.2885 26.5629 15.001 26.5629C17.7135 26.5629 20.326 25.6129 22.401 23.8754C22.176 23.1129 21.576 22.3754 20.6885 21.7754C17.6135 19.7254 12.401 19.7254 9.30102 21.7754C8.41352 22.3754 7.82602 23.1129 7.60102 23.8754Z" fill="white"/>
<path d="M15 28.4375C7.5875 28.4375 1.5625 22.4125 1.5625 15C1.5625 7.5875 7.5875 1.5625 15 1.5625C22.4125 1.5625 28.4375 7.5875 28.4375 15C28.4375 22.4125 22.4125 28.4375 15 28.4375ZM15 3.4375C8.625 3.4375 3.4375 8.625 3.4375 15C3.4375 21.375 8.625 26.5625 15 26.5625C21.375 26.5625 26.5625 21.375 26.5625 15C26.5625 8.625 21.375 3.4375 15 3.4375Z" fill="white"/>
</svg>
