<svg width="30" height="30" viewBox="0 0 30 30" fill="none" xmlns="http://www.w3.org/2000/svg">
<path d="M15.0129 21.2516C13.9504 21.2516 12.8754 20.9766 12.0379 20.4391L4.51289 15.5266C3.11289 14.6141 2.27539 13.0766 2.27539 11.4016C2.27539 9.72657 3.11289 8.18907 4.51289 7.27657L12.0504 2.37657C13.7254 1.28907 16.3379 1.28907 18.0004 2.38907L25.4879 7.30157C26.8754 8.21407 27.7129 9.75157 27.7129 11.4141C27.7129 13.0766 26.8754 14.6141 25.4879 15.5266L18.0004 20.4391C17.1629 20.9891 16.0879 21.2516 15.0129 21.2516ZM15.0129 3.43907C14.3004 3.43907 13.5879 3.60157 13.0754 3.95157L5.55039 8.85157C4.67539 9.42657 4.16289 10.3516 4.16289 11.4016C4.16289 12.4516 4.66289 13.3766 5.55039 13.9516L13.0754 18.8641C14.1129 19.5391 15.9379 19.5391 16.9754 18.8641L24.4629 13.9516C25.3379 13.3766 25.8379 12.4516 25.8379 11.4016C25.8379 10.3516 25.3379 9.42657 24.4629 8.85157L16.9754 3.93907C16.4504 3.61407 15.7379 3.43907 15.0129 3.43907Z" fill="white"/>
<path d="M15.0005 28.4391C14.4505 28.4391 13.888 28.3641 13.438 28.2141L9.45047 26.8891C7.56297 26.2641 6.07547 24.2016 6.08797 22.2141L6.10047 16.3516C6.10047 15.8391 6.52547 15.4141 7.03797 15.4141C7.55047 15.4141 7.97547 15.8391 7.97547 16.3516L7.96297 22.2141C7.96297 23.3891 8.93797 24.7391 10.0505 25.1141L14.038 26.4391C14.538 26.6016 15.463 26.6016 15.963 26.4391L19.9505 25.1141C21.063 24.7391 22.038 23.3891 22.038 22.2266V16.4266C22.038 15.9141 22.463 15.4891 22.9755 15.4891C23.488 15.4891 23.913 15.9141 23.913 16.4266V22.2266C23.913 24.2141 22.438 26.2641 20.5505 26.9016L16.563 28.2266C16.113 28.3641 15.5505 28.4391 15.0005 28.4391Z" fill="white"/>
<path d="M26.75 19.6875C26.2375 19.6875 25.8125 19.2625 25.8125 18.75V11.25C25.8125 10.7375 26.2375 10.3125 26.75 10.3125C27.2625 10.3125 27.6875 10.7375 27.6875 11.25V18.75C27.6875 19.2625 27.2625 19.6875 26.75 19.6875Z" fill="white"/>
</svg>
