<svg width="30" height="30" viewBox="0 0 30 30" fill="none" xmlns="http://www.w3.org/2000/svg">
<path d="M10 7.1875C9.4875 7.1875 9.0625 6.7625 9.0625 6.25V2.5C9.0625 1.9875 9.4875 1.5625 10 1.5625C10.5125 1.5625 10.9375 1.9875 10.9375 2.5V6.25C10.9375 6.7625 10.5125 7.1875 10 7.1875Z" fill="white"/>
<path d="M20 7.1875C19.4875 7.1875 19.0625 6.7625 19.0625 6.25V2.5C19.0625 1.9875 19.4875 1.5625 20 1.5625C20.5125 1.5625 20.9375 1.9875 20.9375 2.5V6.25C20.9375 6.7625 20.5125 7.1875 20 7.1875Z" fill="white"/>
<path d="M10.625 18.1278C10.4625 18.1278 10.3 18.0903 10.15 18.0278C9.9875 17.9653 9.8625 17.8778 9.7375 17.7653C9.5125 17.5278 9.375 17.2153 9.375 16.8778C9.375 16.7153 9.4125 16.5528 9.475 16.4028C9.5375 16.2528 9.625 16.1153 9.7375 15.9903C9.8625 15.8778 9.9875 15.7903 10.15 15.7278C10.6 15.5403 11.1625 15.6403 11.5125 15.9903C11.7375 16.2278 11.875 16.5528 11.875 16.8778C11.875 16.9528 11.8625 17.0403 11.85 17.1278C11.8375 17.2028 11.8125 17.2778 11.775 17.3528C11.75 17.4278 11.7125 17.5028 11.6625 17.5778C11.625 17.6403 11.5625 17.7028 11.5125 17.7653C11.275 17.9903 10.95 18.1278 10.625 18.1278Z" fill="white"/>
<path d="M15 18.1236C14.8375 18.1236 14.675 18.0861 14.525 18.0236C14.3625 17.9611 14.2375 17.8736 14.1125 17.7611C13.8875 17.5236 13.75 17.2111 13.75 16.8736C13.75 16.7111 13.7875 16.5486 13.85 16.3986C13.9125 16.2486 14 16.1111 14.1125 15.9861C14.2375 15.8736 14.3625 15.7861 14.525 15.7236C14.975 15.5236 15.5375 15.6361 15.8875 15.9861C16.1125 16.2236 16.25 16.5486 16.25 16.8736C16.25 16.9486 16.2375 17.0361 16.225 17.1236C16.2125 17.1986 16.1875 17.2736 16.15 17.3486C16.125 17.4236 16.0875 17.4986 16.0375 17.5736C16 17.6361 15.9375 17.6986 15.8875 17.7611C15.65 17.9861 15.325 18.1236 15 18.1236Z" fill="white"/>
<path d="M19.375 18.1236C19.2125 18.1236 19.05 18.0861 18.9 18.0236C18.7375 17.9611 18.6125 17.8736 18.4875 17.7611C18.4375 17.6986 18.3875 17.6361 18.3375 17.5736C18.2875 17.4986 18.25 17.4236 18.225 17.3486C18.1875 17.2736 18.1625 17.1986 18.15 17.1236C18.1375 17.0361 18.125 16.9486 18.125 16.8736C18.125 16.5486 18.2625 16.2236 18.4875 15.9861C18.6125 15.8736 18.7375 15.7861 18.9 15.7236C19.3625 15.5236 19.9125 15.6361 20.2625 15.9861C20.4875 16.2236 20.625 16.5486 20.625 16.8736C20.625 16.9486 20.6125 17.0361 20.6 17.1236C20.5875 17.1986 20.5625 17.2736 20.525 17.3486C20.5 17.4236 20.4625 17.4986 20.4125 17.5736C20.375 17.6361 20.3125 17.6986 20.2625 17.7611C20.025 17.9861 19.7 18.1236 19.375 18.1236Z" fill="white"/>
<path d="M10.625 22.5039C10.4625 22.5039 10.3 22.4664 10.15 22.4039C10 22.3414 9.8625 22.2539 9.7375 22.1414C9.5125 21.9039 9.375 21.5789 9.375 21.2539C9.375 21.0914 9.4125 20.9289 9.475 20.7789C9.5375 20.6164 9.625 20.4789 9.7375 20.3664C10.2 19.9039 11.05 19.9039 11.5125 20.3664C11.7375 20.6039 11.875 20.9289 11.875 21.2539C11.875 21.5789 11.7375 21.9039 11.5125 22.1414C11.275 22.3664 10.95 22.5039 10.625 22.5039Z" fill="white"/>
<path d="M15 22.5039C14.675 22.5039 14.35 22.3664 14.1125 22.1414C13.8875 21.9039 13.75 21.5789 13.75 21.2539C13.75 21.0914 13.7875 20.9289 13.85 20.7789C13.9125 20.6164 14 20.4789 14.1125 20.3664C14.575 19.9039 15.425 19.9039 15.8875 20.3664C16 20.4789 16.0875 20.6164 16.15 20.7789C16.2125 20.9289 16.25 21.0914 16.25 21.2539C16.25 21.5789 16.1125 21.9039 15.8875 22.1414C15.65 22.3664 15.325 22.5039 15 22.5039Z" fill="white"/>
<path d="M19.375 22.5011C19.05 22.5011 18.725 22.3636 18.4875 22.1386C18.375 22.0261 18.2875 21.8886 18.225 21.7261C18.1625 21.5761 18.125 21.4136 18.125 21.2511C18.125 21.0886 18.1625 20.9261 18.225 20.7761C18.2875 20.6136 18.375 20.4761 18.4875 20.3636C18.775 20.0761 19.2125 19.9386 19.6125 20.0261C19.7 20.0386 19.775 20.0636 19.85 20.1011C19.925 20.1261 20 20.1636 20.075 20.2136C20.1375 20.2511 20.2 20.3136 20.2625 20.3636C20.4875 20.6011 20.625 20.9261 20.625 21.2511C20.625 21.5761 20.4875 21.9011 20.2625 22.1386C20.025 22.3636 19.7 22.5011 19.375 22.5011Z" fill="white"/>
<path d="M25.625 12.3047H4.375C3.8625 12.3047 3.4375 11.8797 3.4375 11.3672C3.4375 10.8547 3.8625 10.4297 4.375 10.4297H25.625C26.1375 10.4297 26.5625 10.8547 26.5625 11.3672C26.5625 11.8797 26.1375 12.3047 25.625 12.3047Z" fill="white"/>
<path d="M20 28.4375H10C5.4375 28.4375 2.8125 25.8125 2.8125 21.25V10.625C2.8125 6.0625 5.4375 3.4375 10 3.4375H20C24.5625 3.4375 27.1875 6.0625 27.1875 10.625V21.25C27.1875 25.8125 24.5625 28.4375 20 28.4375ZM10 5.3125C6.425 5.3125 4.6875 7.05 4.6875 10.625V21.25C4.6875 24.825 6.425 26.5625 10 26.5625H20C23.575 26.5625 25.3125 24.825 25.3125 21.25V10.625C25.3125 7.05 23.575 5.3125 20 5.3125H10Z" fill="white"/>
</svg>
