<svg width="30" height="30" viewBox="0 0 30 30" fill="none" xmlns="http://www.w3.org/2000/svg">
<path d="M15.0016 17.7094C12.3391 17.7094 10.1641 15.5469 10.1641 12.8719C10.1641 10.1969 12.3391 8.04688 15.0016 8.04688C17.6641 8.04688 19.8391 10.2094 19.8391 12.8844C19.8391 15.5594 17.6641 17.7094 15.0016 17.7094ZM15.0016 9.92188C13.3766 9.92188 12.0391 11.2469 12.0391 12.8844C12.0391 14.5219 13.3641 15.8469 15.0016 15.8469C16.6391 15.8469 17.9641 14.5219 17.9641 12.8844C17.9641 11.2469 16.6266 9.92188 15.0016 9.92188Z" fill="white"/>
<path d="M15.0001 28.45C13.1501 28.45 11.2876 27.75 9.8376 26.3625C6.1501 22.8125 2.0751 17.15 3.6126 10.4125C5.0001 4.3 10.3376 1.5625 15.0001 1.5625C15.0001 1.5625 15.0001 1.5625 15.0126 1.5625C19.6751 1.5625 25.0126 4.3 26.4001 10.425C27.9251 17.1625 23.8501 22.8125 20.1626 26.3625C18.7126 27.75 16.8501 28.45 15.0001 28.45ZM15.0001 3.4375C11.3626 3.4375 6.6876 5.375 5.4501 10.825C4.1001 16.7125 7.8001 21.7875 11.1501 25C13.3126 27.0875 16.7001 27.0875 18.8626 25C22.2001 21.7875 25.9001 16.7125 24.5751 10.825C23.3251 5.375 18.6376 3.4375 15.0001 3.4375Z" fill="white"/>
</svg>
