<svg width="18" height="19" viewBox="0 0 18 19" fill="none" xmlns="http://www.w3.org/2000/svg">
<path fill-rule="evenodd" clip-rule="evenodd" d="M0 9.5C0 5.90486 0 4.10729 0.856692 2.81255C1.23925 2.23439 1.73439 1.73925 2.31255 1.35669C3.60729 0.5 5.40486 0.5 9 0.5C12.5951 0.5 14.3927 0.5 15.6874 1.35669C16.2656 1.73925 16.7608 2.23439 17.1433 2.81255C18 4.10729 18 5.90486 18 9.5C18 13.0951 18 14.8927 17.1433 16.1874C16.7608 16.7656 16.2656 17.2608 15.6874 17.6433C14.3927 18.5 12.5951 18.5 9 18.5C5.40486 18.5 3.60729 18.5 2.31255 17.6433C1.73439 17.2608 1.23925 16.7656 0.856692 16.1874C0 14.8927 0 13.0951 0 9.5ZM13.6587 9.50316C13.6587 12.0765 11.5726 14.1626 8.99925 14.1626C6.42593 14.1626 4.33984 12.0765 4.33984 9.50316C4.33984 6.92984 6.42593 4.84375 8.99925 4.84375C11.5726 4.84375 13.6587 6.92984 13.6587 9.50316ZM8.99925 12.5862C10.702 12.5862 12.0823 11.2059 12.0823 9.50316C12.0823 7.80046 10.702 6.42016 8.99925 6.42016C7.29656 6.42016 5.91625 7.80046 5.91625 9.50316C5.91625 11.2059 7.29656 12.5862 8.99925 12.5862ZM13.8427 5.70527C14.4473 5.70527 14.9375 5.2151 14.9375 4.61045C14.9375 4.00579 14.4473 3.51562 13.8427 3.51562C13.238 3.51562 12.7478 4.00579 12.7478 4.61045C12.7478 5.2151 13.238 5.70527 13.8427 5.70527Z" fill="white"/>
</svg>
