<svg width="18" height="19" viewBox="0 0 18 19" fill="none" xmlns="http://www.w3.org/2000/svg">
<path d="M9 0.5C4.02975 0.5 0 4.52975 0 9.5C0 11.1884 0.474256 12.7626 1.2832 14.1128L0.0805664 18.5L4.56152 17.3237C5.87202 18.0688 7.38487 18.5 9 18.5C13.9703 18.5 18 14.4703 18 9.5C18 4.52975 13.9703 0.5 9 0.5ZM5.91943 5.30176C6.06568 5.30176 6.21595 5.30087 6.3457 5.30762C6.5062 5.31137 6.68089 5.32312 6.84814 5.69287C7.04689 6.13237 7.47966 7.23493 7.53516 7.34668C7.59066 7.45843 7.62998 7.59008 7.55273 7.73633C7.47923 7.88633 7.44101 7.97711 7.33301 8.10986C7.22126 8.23886 7.09881 8.39908 6.99756 8.49658C6.88581 8.60833 6.77041 8.73086 6.89941 8.95361C7.02841 9.17636 7.47642 9.90659 8.13867 10.4961C8.98992 11.2566 9.70814 11.4903 9.93164 11.6021C10.1551 11.7138 10.2846 11.6964 10.4136 11.5464C10.5463 11.4001 10.9711 10.8983 11.1211 10.6748C11.2673 10.4513 11.4166 10.49 11.6191 10.5635C11.8246 10.637 12.9205 11.1768 13.144 11.2886C13.3675 11.4003 13.5141 11.4556 13.5703 11.5464C13.6281 11.6401 13.6281 12.0864 13.4429 12.6069C13.2576 13.1267 12.3479 13.6293 11.9399 13.6646C11.5282 13.7028 11.1439 13.8496 9.26367 13.1094C6.99567 12.2161 5.56536 9.89316 5.45361 9.74316C5.34186 9.59691 4.54541 8.53543 4.54541 7.44043C4.54541 6.34168 5.12149 5.80358 5.32324 5.58008C5.52874 5.35658 5.76943 5.30176 5.91943 5.30176Z" fill="white"/>
</svg>
