<svg width="16" height="20" viewBox="0 0 16 20" fill="none" xmlns="http://www.w3.org/2000/svg">
<path d="M14.8602 8.95621C14.8602 14.3351 9.351 17.6488 8.20611 18.28C8.14269 18.315 8.07144 18.3333 7.999 18.3333C7.92657 18.3333 7.85532 18.315 7.79189 18.28C6.64615 17.6488 1.13867 14.3351 1.13867 8.95621C1.13867 4.66824 3.71146 1.66666 7.99943 1.66666C12.2874 1.66666 14.8602 4.66824 14.8602 8.95621Z" stroke="#8D8BA7" stroke-width="1.4" stroke-linecap="round" stroke-linejoin="round"/>
<path d="M4.56836 8.52743C4.56836 9.43722 4.92977 10.3098 5.57309 10.9531C6.21642 11.5964 7.08895 11.9578 7.99874 11.9578C8.90853 11.9578 9.78106 11.5964 10.4244 10.9531C11.0677 10.3098 11.4291 9.43722 11.4291 8.52743C11.4291 7.61763 11.0677 6.7451 10.4244 6.10178C9.78106 5.45846 8.90853 5.09705 7.99874 5.09705C7.08895 5.09705 6.21642 5.45846 5.57309 6.10178C4.92977 6.7451 4.56836 7.61763 4.56836 8.52743V8.52743Z" stroke="#8D8BA7" stroke-width="1.4" stroke-linecap="round" stroke-linejoin="round"/>
</svg>
